<svg id="Group_13491" data-name="Group 13491" xmlns="http://www.w3.org/2000/svg" xmlns:xlink="http://www.w3.org/1999/xlink" width="352.53" height="332.587" viewBox="0 0 352.53 332.587">
  <defs>
    <clipPath id="clip-path">
      <rect id="Rectangle_5413" data-name="Rectangle 5413" width="352.53" height="332.587" fill="none"/>
    </clipPath>
    <clipPath id="clip-path-5">
      <rect id="Rectangle_5376" data-name="Rectangle 5376" width="43.82" height="42.541" fill="none"/>
    </clipPath>
    <clipPath id="clip-path-6">
      <rect id="Rectangle_5377" data-name="Rectangle 5377" width="36.271" height="37.314" fill="none"/>
    </clipPath>
    <clipPath id="clip-path-7">
      <rect id="Rectangle_5378" data-name="Rectangle 5378" width="4.006" height="3.888" fill="none"/>
    </clipPath>
    <clipPath id="clip-path-9">
      <rect id="Rectangle_5380" data-name="Rectangle 5380" width="6.555" height="6.364" fill="none"/>
    </clipPath>
    <clipPath id="clip-path-10">
      <rect id="Rectangle_5381" data-name="Rectangle 5381" width="8.762" height="8.507" fill="none"/>
    </clipPath>
    <clipPath id="clip-path-11">
      <rect id="Rectangle_5382" data-name="Rectangle 5382" width="38.451" height="37.329" fill="none"/>
    </clipPath>
    <clipPath id="clip-path-12">
      <rect id="Rectangle_5383" data-name="Rectangle 5383" width="31.857" height="33.928" fill="none"/>
    </clipPath>
    <clipPath id="clip-path-14">
      <rect id="Rectangle_5385" data-name="Rectangle 5385" width="73.359" height="96.897" fill="none"/>
    </clipPath>
    <clipPath id="clip-path-15">
      <rect id="Rectangle_5386" data-name="Rectangle 5386" width="215.34" height="241.386" fill="none"/>
    </clipPath>
    <clipPath id="clip-path-16">
      <rect id="Rectangle_5387" data-name="Rectangle 5387" width="25.884" height="35.335" fill="none"/>
    </clipPath>
    <clipPath id="clip-path-17">
      <rect id="Rectangle_5388" data-name="Rectangle 5388" width="34.619" height="69.903" fill="none"/>
    </clipPath>
    <clipPath id="clip-path-18">
      <rect id="Rectangle_5389" data-name="Rectangle 5389" width="9.786" height="8.717" fill="none"/>
    </clipPath>
    <clipPath id="clip-path-19">
      <rect id="Rectangle_5390" data-name="Rectangle 5390" width="2.125" height="5.359" fill="none"/>
    </clipPath>
    <clipPath id="clip-path-20">
      <rect id="Rectangle_5391" data-name="Rectangle 5391" width="34.165" height="19.095" fill="none"/>
    </clipPath>
    <clipPath id="clip-path-21">
      <rect id="Rectangle_5392" data-name="Rectangle 5392" width="8.953" height="8.463" fill="none"/>
    </clipPath>
    <clipPath id="clip-path-22">
      <rect id="Rectangle_5393" data-name="Rectangle 5393" width="33.255" height="40.031" fill="none"/>
    </clipPath>
    <clipPath id="clip-path-23">
      <rect id="Rectangle_5394" data-name="Rectangle 5394" width="7.029" height="7.506" fill="none"/>
    </clipPath>
    <clipPath id="clip-path-24">
      <rect id="Rectangle_5395" data-name="Rectangle 5395" width="20.032" height="20.39" fill="none"/>
    </clipPath>
    <clipPath id="clip-path-25">
      <rect id="Rectangle_5396" data-name="Rectangle 5396" width="58.992" height="51.007" fill="none"/>
    </clipPath>
    <clipPath id="clip-path-26">
      <rect id="Rectangle_5397" data-name="Rectangle 5397" width="3.973" height="11.248" fill="none"/>
    </clipPath>
    <clipPath id="clip-path-27">
      <rect id="Rectangle_5398" data-name="Rectangle 5398" width="3.659" height="3.922" fill="none"/>
    </clipPath>
    <clipPath id="clip-path-28">
      <rect id="Rectangle_5399" data-name="Rectangle 5399" width="23.294" height="10.964" fill="none"/>
    </clipPath>
    <clipPath id="clip-path-29">
      <rect id="Rectangle_5400" data-name="Rectangle 5400" width="33.278" height="29.344" fill="none"/>
    </clipPath>
    <clipPath id="clip-path-30">
      <rect id="Rectangle_5401" data-name="Rectangle 5401" width="8.486" height="8.56" fill="none"/>
    </clipPath>
    <clipPath id="clip-path-31">
      <rect id="Rectangle_5402" data-name="Rectangle 5402" width="13.932" height="17.662" fill="none"/>
    </clipPath>
    <clipPath id="clip-path-32">
      <rect id="Rectangle_5403" data-name="Rectangle 5403" width="5.159" height="5.008" fill="none"/>
    </clipPath>
    <clipPath id="clip-path-33">
      <rect id="Rectangle_5404" data-name="Rectangle 5404" width="1.691" height="1.642" fill="none"/>
    </clipPath>
    <clipPath id="clip-path-35">
      <rect id="Rectangle_5406" data-name="Rectangle 5406" width="9.806" height="5.313" fill="none"/>
    </clipPath>
    <clipPath id="clip-path-37">
      <rect id="Rectangle_5408" data-name="Rectangle 5408" width="69.411" height="65.909" fill="none"/>
    </clipPath>
    <clipPath id="clip-path-38">
      <rect id="Rectangle_5409" data-name="Rectangle 5409" width="132" height="128.146" fill="none"/>
    </clipPath>
    <clipPath id="clip-path-39">
      <rect id="Rectangle_5410" data-name="Rectangle 5410" width="53.444" height="51.884" fill="none"/>
    </clipPath>
    <clipPath id="clip-path-40">
      <rect id="Rectangle_5411" data-name="Rectangle 5411" width="70.569" height="64.146" fill="none"/>
    </clipPath>
  </defs>
  <g id="Group_13490" data-name="Group 13490" clip-path="url(#clip-path)">
    <path id="Path_154579" data-name="Path 154579" d="M76.037,217.092H15.182V190.419l60.855-70.226h29.115v71.738h15.091v25.16H105.152v21.816H76.037Zm0-25.16V155.2L43.881,191.931Z" transform="translate(0 -3.508)" fill="#18a675"/>
    <g id="Group_13378" data-name="Group 13378">
      <g id="Group_13377" data-name="Group 13377" clip-path="url(#clip-path)">
        <path id="Path_154580" data-name="Path 154580" d="M130.659,180.068q0-33.28,12.343-46.578t37.6-13.3q12.137,0,19.929,2.907a37.092,37.092,0,0,1,12.713,7.564,40.487,40.487,0,0,1,7.75,9.794,50.09,50.09,0,0,1,4.552,11.984,108.8,108.8,0,0,1,3.362,27.23q0,31.767-11.072,46.5T179.7,240.9q-15.174,0-24.523-4.7a39.264,39.264,0,0,1-15.336-13.774q-4.35-6.45-6.766-17.636a117.059,117.059,0,0,1-2.42-24.723m33.134.08q0,22.295,4.059,30.456t11.769,8.16a12.528,12.528,0,0,0,8.817-3.463q3.73-3.464,5.5-10.948t1.762-23.33q0-23.247-4.059-31.25t-12.179-8q-8.284,0-11.975,8.162t-3.69,30.215" transform="translate(0 -3.508)" fill="#18a675"/>
        <path id="Path_154581" data-name="Path 154581" d="M300.1,217.092H239.246V190.419L300.1,120.193h29.115v71.738h15.091v25.16H329.216v21.816H300.1Zm0-25.16V155.2l-32.155,36.734Z" transform="translate(0 -3.508)" fill="#18a675"/>
      </g>
    </g>
    <g id="Group_13407" data-name="Group 13407">
      <g id="Group_13406" data-name="Group 13406" clip-path="url(#clip-path)">
        <g id="Group_13381" data-name="Group 13381" opacity="0.3">
          <g id="Group_13380" data-name="Group 13380">
            <g id="Group_13379" data-name="Group 13379" clip-path="url(#clip-path)">
              <path id="Path_154582" data-name="Path 154582" d="M129.309,77.925a1.866,1.866,0,1,1-1.865-1.811,1.838,1.838,0,0,1,1.865,1.811" transform="translate(0 -2.222)" fill="#c7f2e3"/>
              <path id="Path_154583" data-name="Path 154583" d="M2.646,148.45a1.3,1.3,0,0,1-1.323,1.284,1.285,1.285,0,1,1,0-2.569,1.3,1.3,0,0,1,1.323,1.284" transform="translate(0 -4.296)" fill="#c7f2e3"/>
              <path id="Path_154584" data-name="Path 154584" d="M221.3,340.639a1.894,1.894,0,1,1-1.893-1.838,1.866,1.866,0,0,1,1.893,1.838" transform="translate(0 -9.889)" fill="#c7f2e3"/>
              <path id="Path_154585" data-name="Path 154585" d="M266.179,264.321a1.324,1.324,0,1,1-1.323-1.284,1.3,1.3,0,0,1,1.323,1.284" transform="translate(0 -7.678)" fill="#c7f2e3"/>
              <path id="Path_154586" data-name="Path 154586" d="M352.53,27.94a1.324,1.324,0,1,1-1.323-1.284,1.3,1.3,0,0,1,1.323,1.284" transform="translate(0 -0.778)" fill="#c7f2e3"/>
              <path id="Path_154587" data-name="Path 154587" d="M101.111,1.284a1.324,1.324,0,0,1-2.646,0,1.324,1.324,0,0,1,2.646,0" fill="#c7f2e3"/>
              <path id="Path_154588" data-name="Path 154588" d="M207.376,69.264a1.324,1.324,0,1,1-1.323-1.284,1.3,1.3,0,0,1,1.323,1.284" transform="translate(0 -1.984)" fill="#c7f2e3"/>
            </g>
          </g>
        </g>
        <path id="Path_154589" data-name="Path 154589" d="M91.5,48.081c0,11.748-9.809,21.27-21.91,21.27s-21.91-9.523-21.91-21.27,9.809-21.27,21.91-21.27S91.5,36.334,91.5,48.081" transform="translate(0 -0.783)" fill="#18a675"/>
        <g id="Group_13384" data-name="Group 13384" transform="translate(47.681 26.028)" opacity="0.7">
          <g id="Group_13383" data-name="Group 13383">
            <g id="Group_13382" data-name="Group 13382" clip-path="url(#clip-path-5)">
              <path id="Path_154590" data-name="Path 154590" d="M91.5,48.081c0,11.748-9.809,21.27-21.91,21.27s-21.91-9.523-21.91-21.27,9.809-21.27,21.91-21.27S91.5,36.334,91.5,48.081" transform="translate(-47.681 -26.811)" fill="#fff"/>
            </g>
          </g>
        </g>
        <g id="Group_13387" data-name="Group 13387" transform="translate(47.683 31.25)" opacity="0.2">
          <g id="Group_13386" data-name="Group 13386">
            <g id="Group_13385" data-name="Group 13385" clip-path="url(#clip-path-6)">
              <path id="Path_154591" data-name="Path 154591" d="M62.04,32.19A22.481,22.481,0,0,0,53.4,33.908a20.866,20.866,0,0,0-5.715,14.331c0,11.744,9.807,21.265,21.9,21.265a22.513,22.513,0,0,0,8.682-1.728v-.01a20.884,20.884,0,0,0,5.685-14.3c0-11.754-9.807-21.274-21.915-21.274" transform="translate(-47.683 -32.19)" fill="#18a675"/>
            </g>
          </g>
        </g>
        <g id="Group_13390" data-name="Group 13390" transform="translate(55.856 34.931)" opacity="0.2">
          <g id="Group_13389" data-name="Group 13389">
            <g id="Group_13388" data-name="Group 13388" clip-path="url(#clip-path-7)">
              <path id="Path_154592" data-name="Path 154592" d="M59.861,37.925a2,2,0,1,1-2-1.945,1.975,1.975,0,0,1,2,1.945" transform="translate(-55.856 -35.981)" fill="#18a675"/>
            </g>
          </g>
        </g>
        <g id="Group_13393" data-name="Group 13393" transform="translate(79.415 32.986)" opacity="0.2">
          <g id="Group_13392" data-name="Group 13392">
            <g id="Group_13391" data-name="Group 13391" clip-path="url(#clip-path-7)">
              <path id="Path_154593" data-name="Path 154593" d="M83.421,35.923a2,2,0,1,1-2-1.945,1.975,1.975,0,0,1,2,1.945" transform="translate(-79.415 -33.978)" fill="#18a675"/>
            </g>
          </g>
        </g>
        <g id="Group_13396" data-name="Group 13396" transform="translate(72.86 45.613)" opacity="0.2">
          <g id="Group_13395" data-name="Group 13395">
            <g id="Group_13394" data-name="Group 13394" clip-path="url(#clip-path-9)">
              <path id="Path_154594" data-name="Path 154594" d="M79.415,50.165a3.279,3.279,0,1,1-3.278-3.182,3.231,3.231,0,0,1,3.278,3.182" transform="translate(-72.86 -46.984)" fill="#18a675"/>
            </g>
          </g>
        </g>
        <g id="Group_13399" data-name="Group 13399" transform="translate(60.237 53.613)" opacity="0.2">
          <g id="Group_13398" data-name="Group 13398">
            <g id="Group_13397" data-name="Group 13397" clip-path="url(#clip-path-10)">
              <path id="Path_154595" data-name="Path 154595" d="M69,59.479a4.383,4.383,0,1,1-4.381-4.253A4.318,4.318,0,0,1,69,59.479" transform="translate(-60.237 -55.225)" fill="#18a675"/>
            </g>
          </g>
        </g>
        <path id="Path_154596" data-name="Path 154596" d="M329.78,308.049c0,10.308-8.608,18.665-19.226,18.665s-19.225-8.357-19.225-18.665,8.607-18.665,19.225-18.665,19.226,8.357,19.226,18.665" transform="translate(0 -8.447)" fill="#18a675"/>
        <g id="Group_13402" data-name="Group 13402" transform="translate(291.329 280.937)" opacity="0.3">
          <g id="Group_13401" data-name="Group 13401">
            <g id="Group_13400" data-name="Group 13400" clip-path="url(#clip-path-11)">
              <path id="Path_154597" data-name="Path 154597" d="M329.78,308.049c0,10.308-8.608,18.665-19.226,18.665s-19.225-8.357-19.225-18.665,8.607-18.665,19.225-18.665,19.226,8.357,19.226,18.665" transform="translate(-291.329 -289.384)" fill="#fff"/>
            </g>
          </g>
        </g>
        <g id="Group_13405" data-name="Group 13405" transform="translate(297.923 284.338)" opacity="0.4">
          <g id="Group_13404" data-name="Group 13404">
            <g id="Group_13403" data-name="Group 13403" clip-path="url(#clip-path-12)">
              <path id="Path_154598" data-name="Path 154598" d="M322.69,293.675a19.582,19.582,0,0,0-5.538-.788c-10.619,0-19.229,8.359-19.229,18.667a18.411,18.411,0,0,0,7.09,14.474,19.617,19.617,0,0,0,5.538.788c10.619,0,19.229-8.359,19.229-18.668a18.4,18.4,0,0,0-7.09-14.473" transform="translate(-297.923 -292.888)" fill="#18a675"/>
            </g>
          </g>
        </g>
        <path id="Path_154599" data-name="Path 154599" d="M292.188,313.958c-20.535,9.38-5.217,16.61,23.711,6.517,26.784-9.346,36.967-21.135,13.052-17.481,1.234,4.96-32.312,17.649-36.763,10.964" transform="translate(0 -8.824)" fill="#18a675"/>
      </g>
    </g>
    <g id="Group_13475" data-name="Group 13475">
      <g id="Group_13474" data-name="Group 13474" clip-path="url(#clip-path)">
        <g id="Group_13410" data-name="Group 13410" transform="translate(249.095 116.682)" opacity="0.2">
          <g id="Group_13409" data-name="Group 13409">
            <g id="Group_13408" data-name="Group 13408" clip-path="url(#clip-path-14)">
              <path id="Path_154600" data-name="Path 154600" d="M322.454,120.19c-26.89,17.64-61.7,40.9-71.309,96.9h-2.051c9.35-55.317,42.89-79.189,69.79-96.9Z" transform="translate(-249.095 -120.19)"/>
            </g>
          </g>
        </g>
        <path id="Path_154601" data-name="Path 154601" d="M183.376,293.369c-16.97,0-33.809-7.438-41.986-19.6-5.053-7.513-10.92-23.251,6.555-44.248l1.556,1.221c-12.362,14.852-14.648,29.756-6.436,41.965,9.994,14.861,33.6,22.334,53.73,17.016,20.628-5.449,33.152-22.869,34.361-47.791,4.135-85.244,50.784-111.5,84.846-130.676,21.162-11.912,36.452-20.519,33.091-38.675a7.493,7.493,0,0,0-3.163-5.321c-4.353-2.785-12.853-.86-22.694,1.367C303.93,73,277.49,78.976,261.739,52.967l1.724-.984c15.006,24.779,39.577,19.222,59.319,14.756,10.291-2.327,19.177-4.337,24.248-1.1a9.326,9.326,0,0,1,4.032,6.6c3.609,19.5-13.013,28.852-34.057,40.7-33.664,18.949-79.768,44.9-83.852,129.087-1.252,25.82-14.313,43.888-35.833,49.574a54.753,54.753,0,0,1-13.944,1.769" transform="translate(0 -1.517)" fill="#18a675"/>
        <g id="Group_13413" data-name="Group 13413" transform="translate(136.217 50.466)" opacity="0.2">
          <g id="Group_13412" data-name="Group 13412">
            <g id="Group_13411" data-name="Group 13411" clip-path="url(#clip-path-15)">
              <path id="Path_154602" data-name="Path 154602" d="M183.376,293.369c-16.97,0-33.809-7.438-41.986-19.6-5.053-7.513-10.92-23.251,6.555-44.248l1.556,1.221c-12.362,14.852-14.648,29.756-6.436,41.965,9.994,14.861,33.6,22.334,53.73,17.016,20.628-5.449,33.152-22.869,34.361-47.791,4.135-85.244,50.784-111.5,84.846-130.676,21.162-11.912,36.452-20.519,33.091-38.675a7.493,7.493,0,0,0-3.163-5.321c-4.353-2.785-12.853-.86-22.694,1.367C303.93,73,277.49,78.976,261.739,52.967l1.724-.984c15.006,24.779,39.577,19.222,59.319,14.756,10.291-2.327,19.177-4.337,24.248-1.1a9.326,9.326,0,0,1,4.032,6.6c3.609,19.5-13.013,28.852-34.057,40.7-33.664,18.949-79.768,44.9-83.852,129.087-1.252,25.82-14.313,43.888-35.833,49.574a54.753,54.753,0,0,1-13.944,1.769" transform="translate(-136.217 -51.983)" fill="#fff"/>
            </g>
          </g>
        </g>
        <path id="Path_154603" data-name="Path 154603" d="M241.115,29.309A47.4,47.4,0,0,1,254.7,31.381S265.662,49.6,267,53.774c-.46,4.116-7.615,10.864-7.615,10.864Z" transform="translate(0 -0.855)" fill="#3e9ab0"/>
        <g id="Group_13416" data-name="Group 13416" transform="translate(241.115 28.449)" opacity="0.3">
          <g id="Group_13415" data-name="Group 13415">
            <g id="Group_13414" data-name="Group 13414" clip-path="url(#clip-path-16)">
              <path id="Path_154604" data-name="Path 154604" d="M241.115,29.309A47.4,47.4,0,0,1,254.7,31.381S265.662,49.6,267,53.774c-.46,4.116-7.615,10.864-7.615,10.864Z" transform="translate(-241.115 -29.304)" fill="#fff"/>
            </g>
          </g>
        </g>
        <path id="Path_154605" data-name="Path 154605" d="M273.7,118.793a137.862,137.862,0,0,1-11.559-15.907q-1.262-2.107-2.389-4.286-.642-1.236-1.244-2.492a10.017,10.017,0,0,1-1.2-2.606c-1.2-12.3,3.137-21.359-1.028-31.233L239.8,68.519s1.4,17.593,4.6,28.118c1.984,6.53,6.475,12.183,10.8,17.414,1.354,1.636,2.658,3.31,4.01,4.949,1.279,1.551,2.711,2.975,3.994,4.518,1.947,2.342,2.594,4.578,1.115,7.34q-.12.221-.247.44c-.42.719,1.547,1.535,2.781.019,2.042-2.5,1.721-2.351,3.462-4.487,1.057-1.3,2.271-2.7,3.319-3.915a3.2,3.2,0,0,0,.059-4.122" transform="translate(0 -1.818)" fill="#407bff"/>
        <g id="Group_13419" data-name="Group 13419" transform="translate(239.802 60.452)" opacity="0.7">
          <g id="Group_13418" data-name="Group 13418">
            <g id="Group_13417" data-name="Group 13417" clip-path="url(#clip-path-17)">
              <path id="Path_154606" data-name="Path 154606" d="M273.7,118.793a137.862,137.862,0,0,1-11.559-15.907q-1.262-2.107-2.389-4.286-.642-1.236-1.244-2.492a10.017,10.017,0,0,1-1.2-2.606c-1.2-12.3,3.137-21.359-1.028-31.233L239.8,68.519s1.4,17.593,4.6,28.118c1.984,6.53,6.475,12.183,10.8,17.414,1.354,1.636,2.658,3.31,4.01,4.949,1.279,1.551,2.711,2.975,3.994,4.518,1.947,2.342,2.594,4.578,1.115,7.34q-.12.221-.247.44c-.42.719,1.547,1.535,2.781.019,2.042-2.5,1.721-2.351,3.462-4.487,1.057-1.3,2.271-2.7,3.319-3.915a3.2,3.2,0,0,0,.059-4.122" transform="translate(-239.802 -62.27)" fill="#fff"/>
            </g>
          </g>
        </g>
        <g id="Group_13422" data-name="Group 13422" transform="translate(261.005 111.914)" opacity="0.3">
          <g id="Group_13421" data-name="Group 13421">
            <g id="Group_13420" data-name="Group 13420" clip-path="url(#clip-path-18)">
              <path id="Path_154607" data-name="Path 154607" d="M269.669,115.279a54.065,54.065,0,0,1-8.664,7.3c.429.465.856.94,1.283,1.414a43.538,43.538,0,0,0,8.5-7.285c-.376-.472-.749-.952-1.122-1.433" transform="translate(-261.005 -115.279)" fill="#407bff"/>
            </g>
          </g>
        </g>
        <g id="Group_13425" data-name="Group 13425" transform="translate(272.296 116.837)" opacity="0.3">
          <g id="Group_13424" data-name="Group 13424">
            <g id="Group_13423" data-name="Group 13423" clip-path="url(#clip-path-19)">
              <path id="Path_154608" data-name="Path 154608" d="M273.693,120.491c-.039-.05-.078-.091-.117-.141a4.876,4.876,0,0,0-1.265,3.076,4.59,4.59,0,0,0,.377,2.282c.333-.375.644-.746.95-1.1a3.19,3.19,0,0,0,.055-4.12" transform="translate(-272.296 -120.35)" fill="#407bff"/>
            </g>
          </g>
        </g>
        <path id="Path_154609" data-name="Path 154609" d="M237.2,41.082a35.1,35.1,0,0,1-6.376,6.984,23.864,23.864,0,0,1-4.416,2.893,19.367,19.367,0,0,1-2.584,1.052l-.674.211-.218.066q-.237.07-.477.126a6.651,6.651,0,0,1-.873.132,7.686,7.686,0,0,1-2.514-.226,12.3,12.3,0,0,1-2.937-1.227,22.972,22.972,0,0,1-2.154-1.373,39.26,39.26,0,0,1-3.578-2.959,52.237,52.237,0,0,1-5.99-6.539,2.39,2.39,0,0,1,.509-3.41,2.572,2.572,0,0,1,2.843-.109l.076.048c2.36,1.455,4.741,2.988,7.064,4.361,1.173.673,2.319,1.347,3.446,1.874a16.028,16.028,0,0,0,1.587.7,3.288,3.288,0,0,0,1.077.259c.052,0-.01-.071-.378-.059a2.3,2.3,0,0,0-.343.044,1.831,1.831,0,0,0-.218.054c-.069.022.029-.018.035-.024l.33-.164a13.312,13.312,0,0,0,1.29-.766,18.9,18.9,0,0,0,2.5-2.058,64.42,64.42,0,0,0,4.9-5.617l.023-.028a5.1,5.1,0,0,1,7.025-.8,4.775,4.775,0,0,1,1.021,6.563" transform="translate(0 -0.977)" fill="#407bff"/>
        <g id="Group_13428" data-name="Group 13428" transform="translate(203.909 32.497)" opacity="0.7">
          <g id="Group_13427" data-name="Group 13427">
            <g id="Group_13426" data-name="Group 13426" clip-path="url(#clip-path-20)">
              <path id="Path_154610" data-name="Path 154610" d="M237.2,41.082a35.1,35.1,0,0,1-6.376,6.984,23.864,23.864,0,0,1-4.416,2.893,19.367,19.367,0,0,1-2.584,1.052l-.674.211-.218.066q-.237.07-.477.126a6.651,6.651,0,0,1-.873.132,7.686,7.686,0,0,1-2.514-.226,12.3,12.3,0,0,1-2.937-1.227,22.972,22.972,0,0,1-2.154-1.373,39.26,39.26,0,0,1-3.578-2.959,52.237,52.237,0,0,1-5.99-6.539,2.39,2.39,0,0,1,.509-3.41,2.572,2.572,0,0,1,2.843-.109l.076.048c2.36,1.455,4.741,2.988,7.064,4.361,1.173.673,2.319,1.347,3.446,1.874a16.028,16.028,0,0,0,1.587.7,3.288,3.288,0,0,0,1.077.259c.052,0-.01-.071-.378-.059a2.3,2.3,0,0,0-.343.044,1.831,1.831,0,0,0-.218.054c-.069.022.029-.018.035-.024l.33-.164a13.312,13.312,0,0,0,1.29-.766,18.9,18.9,0,0,0,2.5-2.058,64.42,64.42,0,0,0,4.9-5.617l.023-.028a5.1,5.1,0,0,1,7.025-.8,4.775,4.775,0,0,1,1.021,6.563" transform="translate(-203.909 -33.474)" fill="#fff"/>
            </g>
          </g>
        </g>
        <path id="Path_154611" data-name="Path 154611" d="M200.642,34.669l1.172,1.909s.9,2.54,2.686,3.01l4.854-1.527-.243-.4h.007c-.622-.919-.555-2.692-.336-4.167s-.57-1.527-1.152-1.16a3.683,3.683,0,0,0-.847,1.61,7.513,7.513,0,0,0-.784-.907l-1.483-1.434a1.746,1.746,0,0,0-2.34-.064l-1.2,1.038a1.623,1.623,0,0,0-.332,2.087" transform="translate(0 -0.909)" fill="#407bff"/>
        <g id="Group_13431" data-name="Group 13431" transform="translate(200.401 30.216)" opacity="0.7">
          <g id="Group_13430" data-name="Group 13430">
            <g id="Group_13429" data-name="Group 13429" clip-path="url(#clip-path-21)">
              <path id="Path_154612" data-name="Path 154612" d="M200.642,34.669l1.172,1.909s.9,2.54,2.686,3.01l4.854-1.527-.243-.4h.007c-.622-.919-.555-2.692-.336-4.167s-.57-1.527-1.152-1.16a3.683,3.683,0,0,0-.847,1.61,7.513,7.513,0,0,0-.784-.907l-1.483-1.434a1.746,1.746,0,0,0-2.34-.064l-1.2,1.038a1.623,1.623,0,0,0-.332,2.087" transform="translate(-200.401 -31.125)" fill="#fff"/>
            </g>
          </g>
        </g>
        <path id="Path_154613" data-name="Path 154613" d="M246.032,27.582a60.273,60.273,0,0,0-15.349,6.279,4.134,4.134,0,0,0-1.932,4.393c1.924,9.163,6.314,21.439,11.053,29.249l22.111-8.879c.153-3.787-5.216-16.038-10.683-27.88-.983-2.129-2.864-3.712-5.2-3.162" transform="translate(0 -0.802)" fill="#407bff"/>
        <g id="Group_13434" data-name="Group 13434" transform="translate(228.663 26.669)" opacity="0.8">
          <g id="Group_13433" data-name="Group 13433">
            <g id="Group_13432" data-name="Group 13432" clip-path="url(#clip-path-22)">
              <path id="Path_154614" data-name="Path 154614" d="M246.032,27.582a60.273,60.273,0,0,0-15.349,6.279,4.134,4.134,0,0,0-1.932,4.393c1.924,9.163,6.314,21.439,11.053,29.249l22.111-8.879c.153-3.787-5.216-16.038-10.683-27.88-.983-2.129-2.864-3.712-5.2-3.162" transform="translate(-228.663 -27.471)" fill="#fff"/>
            </g>
          </g>
        </g>
        <g id="Group_13437" data-name="Group 13437" transform="translate(250.266 36.02)" opacity="0.3">
          <g id="Group_13436" data-name="Group 13436">
            <g id="Group_13435" data-name="Group 13435" clip-path="url(#clip-path-23)">
              <path id="Path_154615" data-name="Path 154615" d="M254.654,38.531,250.266,37.1c.982,2.491,4.533,5.651,7.03,7.506-.823-1.947-1.715-3.983-2.642-6.078" transform="translate(-250.266 -37.103)" fill="#407bff"/>
            </g>
          </g>
        </g>
        <path id="Path_154616" data-name="Path 154616" d="M244.575,17.537c-1.825-3.379-5.774-5.08-10.516-4.7-4,.324-7.544,4.287-7.124,6.428s3.785,3.048,4.4,3.792l-2.773,1.952a2.859,2.859,0,0,0-.6,4.162c1.167,1.439,2.7,2.941,3.6,4,7.664-.193,13.332-3.032,15.374-5.763-.734-3.476-.543-6.517-2.358-9.878" transform="translate(0 -0.373)" fill="#407bff"/>
        <g id="Group_13440" data-name="Group 13440" transform="translate(226.901 12.415)" opacity="0.8">
          <g id="Group_13439" data-name="Group 13439">
            <g id="Group_13438" data-name="Group 13438" clip-path="url(#clip-path-24)">
              <path id="Path_154617" data-name="Path 154617" d="M244.575,17.537c-1.825-3.379-5.774-5.08-10.516-4.7-4,.324-7.544,4.287-7.124,6.428s3.785,3.048,4.4,3.792l-2.773,1.952a2.859,2.859,0,0,0-.6,4.162c1.167,1.439,2.7,2.941,3.6,4,7.664-.193,13.332-3.032,15.374-5.763-.734-3.476-.543-6.517-2.358-9.878" transform="translate(-226.901 -12.788)" fill="#fff"/>
            </g>
          </g>
        </g>
        <path id="Path_154618" data-name="Path 154618" d="M240.818,19.7a7.284,7.284,0,0,1-4.3,9.524,7.647,7.647,0,0,1-9.81-4.172,7.286,7.286,0,0,1,4.3-9.524,7.648,7.648,0,0,1,9.81,4.172" transform="translate(0 -0.438)" fill="#18a675"/>
        <path id="Path_154619" data-name="Path 154619" d="M305.745,108.486c-.111-3.193-.253-2.874-.349-5.6-.057-1.653-.065-3.484-.076-5.071a3.3,3.3,0,0,0-2.7-3.181c-1.326-.261-2.655-.51-3.977-.783-1.726-.356-3.432-.742-5.127-1.219q-1.973-.555-3.9-1.23c-1.379-.482-2.741-1.012-4.089-1.573-1.576-.656-3.132-1.355-4.678-2.076-1.725-.8-3.437-1.634-5.143-2.476-6.582-10.578-6.723-17.547-13.786-25.723l-15.16,6.658S257.894,85.4,265.48,93.54c4.366,4.682,11.218,6.793,17.327,8.325,4.408,1.1,8.878,1.95,13.353,2.748,1.74.31,3.632.43,5.129,1.438a5.558,5.558,0,0,1,2.137,3.351c.071.269.131.542.185.815.158.813,2.2.2,2.134-1.731" transform="translate(0 -1.739)" fill="#407bff"/>
        <g id="Group_13443" data-name="Group 13443" transform="translate(246.755 57.82)" opacity="0.8">
          <g id="Group_13442" data-name="Group 13442">
            <g id="Group_13441" data-name="Group 13441" clip-path="url(#clip-path-25)">
              <path id="Path_154620" data-name="Path 154620" d="M305.745,108.486c-.111-3.193-.253-2.874-.349-5.6-.057-1.653-.065-3.484-.076-5.071a3.3,3.3,0,0,0-2.7-3.181c-1.326-.261-2.655-.51-3.977-.783-1.726-.356-3.432-.742-5.127-1.219q-1.973-.555-3.9-1.23c-1.379-.482-2.741-1.012-4.089-1.573-1.576-.656-3.132-1.355-4.678-2.076-1.725-.8-3.437-1.634-5.143-2.476-6.582-10.578-6.723-17.547-13.786-25.723l-15.16,6.658S257.894,85.4,265.48,93.54c4.366,4.682,11.218,6.793,17.327,8.325,4.408,1.1,8.878,1.95,13.353,2.748,1.74.31,3.632.43,5.129,1.438a5.558,5.558,0,0,1,2.137,3.351c.071.269.131.542.185.815.158.813,2.2.2,2.134-1.731" transform="translate(-246.755 -59.559)" fill="#fff"/>
            </g>
          </g>
        </g>
        <g id="Group_13446" data-name="Group 13446" transform="translate(294.084 91.599)" opacity="0.3">
          <g id="Group_13445" data-name="Group 13445">
            <g id="Group_13444" data-name="Group 13444" clip-path="url(#clip-path-26)">
              <path id="Path_154621" data-name="Path 154621" d="M298.057,94.749c-.6-.127-1.2-.257-1.806-.4.047,3.352-1.573,9.143-2.167,10.9l1.9.35a35.837,35.837,0,0,0,2.072-10.852" transform="translate(-294.084 -94.353)" fill="#407bff"/>
            </g>
          </g>
        </g>
        <g id="Group_13449" data-name="Group 13449" transform="translate(301.669 92.715)" opacity="0.3">
          <g id="Group_13448" data-name="Group 13448">
            <g id="Group_13447" data-name="Group 13447" clip-path="url(#clip-path-27)">
              <path id="Path_154622" data-name="Path 154622" d="M305.318,98.869a3.3,3.3,0,0,0-2.694-3.185c-.314-.062-.638-.127-.955-.181a4.387,4.387,0,0,0,1.628,2.812,5.144,5.144,0,0,0,2.031,1.11c-.008-.193-.009-.375-.01-.556" transform="translate(-301.669 -95.503)" fill="#407bff"/>
            </g>
          </g>
        </g>
        <path id="Path_154623" data-name="Path 154623" d="M239.4,19.788c.4,1.472-1.292,3.019-2.65,1.746a30.687,30.687,0,0,0-4.117-3.585c-1.392-.845.464-2.317,2.651-1.746a5.875,5.875,0,0,1,4.116,3.585" transform="translate(0 -0.469)" fill="#fff"/>
        <path id="Path_154624" data-name="Path 154624" d="M239.518,67.933c-.705.252.583,1.413.583,1.413s13.97-4.647,22.5-9.432a1.8,1.8,0,0,0-.678-1.532,220.767,220.767,0,0,1-22.4,9.551" transform="translate(0 -1.704)" fill="#3e9ab0"/>
        <g id="Group_13452" data-name="Group 13452" transform="translate(239.307 56.678)" opacity="0.5">
          <g id="Group_13451" data-name="Group 13451">
            <g id="Group_13450" data-name="Group 13450" clip-path="url(#clip-path-28)">
              <path id="Path_154625" data-name="Path 154625" d="M239.518,67.933c-.705.252.583,1.413.583,1.413s5.758-1.915,12.407-4.665A98.752,98.752,0,0,0,262.6,59.914a1.8,1.8,0,0,0-.678-1.532,220.767,220.767,0,0,1-22.4,9.551" transform="translate(-239.307 -58.382)" fill="#fff"/>
            </g>
          </g>
        </g>
        <path id="Path_154626" data-name="Path 154626" d="M249.818,26.907c2.758,1.352,5.354,2.784,7.947,4.37,1.291.789,2.576,1.6,3.842,2.474,1.276.857,2.535,1.762,3.8,2.778l.474.377.59.518a12.331,12.331,0,0,1,1.037,1.02c.324.341.591.669.854,1s.532.655.765.979a42.281,42.281,0,0,1,2.586,3.9,56.478,56.478,0,0,1,3.966,8.105,2.425,2.425,0,0,1-1.471,3.149,2.574,2.574,0,0,1-2.718-.608l-.049-.052c-2.009-2.066-3.936-4.244-5.875-6.269a28.452,28.452,0,0,0-5.537-4.991c-2.27-1.375-4.8-2.74-7.31-4.084L245.156,35.5l-.019-.011a4.779,4.779,0,0,1-1.945-6.6,5.088,5.088,0,0,1,6.626-1.979" transform="translate(0 -0.77)" fill="#407bff"/>
        <g id="Group_13455" data-name="Group 13455" transform="translate(242.562 25.619)" opacity="0.8">
          <g id="Group_13454" data-name="Group 13454">
            <g id="Group_13453" data-name="Group 13453" clip-path="url(#clip-path-29)">
              <path id="Path_154627" data-name="Path 154627" d="M249.818,26.907c2.758,1.352,5.354,2.784,7.947,4.37,1.291.789,2.576,1.6,3.842,2.474,1.276.857,2.535,1.762,3.8,2.778l.474.377.59.518a12.331,12.331,0,0,1,1.037,1.02c.324.341.591.669.854,1s.532.655.765.979a42.281,42.281,0,0,1,2.586,3.9,56.478,56.478,0,0,1,3.966,8.105,2.425,2.425,0,0,1-1.471,3.149,2.574,2.574,0,0,1-2.718-.608l-.049-.052c-2.009-2.066-3.936-4.244-5.875-6.269a28.452,28.452,0,0,0-5.537-4.991c-2.27-1.375-4.8-2.74-7.31-4.084L245.156,35.5l-.019-.011a4.779,4.779,0,0,1-1.945-6.6,5.088,5.088,0,0,1,6.626-1.979" transform="translate(-242.562 -26.389)" fill="#fff"/>
            </g>
          </g>
        </g>
        <path id="Path_154628" data-name="Path 154628" d="M278.091,57.934l-.849-2.063s-.474-2.645-2.167-3.381l-5.04.77.175.427-.006,0c.466,1,.113,2.744-.341,4.166s.316,1.6.95,1.321c.367-.157.71-.785,1.1-1.461a7.285,7.285,0,0,0,.628,1.015l1.233,1.642a1.741,1.741,0,0,0,2.3.419l1.355-.842a1.632,1.632,0,0,0,.665-2.012" transform="translate(0 -1.532)" fill="#407bff"/>
        <g id="Group_13458" data-name="Group 13458" transform="translate(269.727 50.958)" opacity="0.8">
          <g id="Group_13457" data-name="Group 13457">
            <g id="Group_13456" data-name="Group 13456" clip-path="url(#clip-path-30)">
              <path id="Path_154629" data-name="Path 154629" d="M278.091,57.934l-.849-2.063s-.474-2.645-2.167-3.381l-5.04.77.175.427-.006,0c.466,1,.113,2.744-.341,4.166s.316,1.6.95,1.321c.367-.157.71-.785,1.1-1.461a7.285,7.285,0,0,0,.628,1.015l1.233,1.642a1.741,1.741,0,0,0,2.3.419l1.355-.842a1.632,1.632,0,0,0,.665-2.012" transform="translate(-269.727 -52.49)" fill="#fff"/>
            </g>
          </g>
        </g>
        <g id="Group_13461" data-name="Group 13461" transform="translate(236.89 37.296)" opacity="0.3">
          <g id="Group_13460" data-name="Group 13460">
            <g id="Group_13459" data-name="Group 13459" clip-path="url(#clip-path-31)">
              <path id="Path_154630" data-name="Path 154630" d="M245.593,38.417l-1.219.1-7.485,17.556a4.062,4.062,0,0,0,1.219-.1s9.76-3.532,12.714-4.826c-1.989-4-5.229-12.73-5.229-12.73" transform="translate(-236.89 -38.417)" fill="#407bff"/>
            </g>
          </g>
        </g>
        <path id="Path_154631" data-name="Path 154631" d="M231.925,43.026a41.415,41.415,0,0,0,4.965,13.046c3.655-1.223,9.76-3.531,12.714-4.826a129.782,129.782,0,0,1-5.229-12.73c-3.149.2-10.011,2.713-12.45,4.51" transform="translate(0 -1.124)" fill="#fff"/>
        <g id="Group_13464" data-name="Group 13464" transform="translate(234.307 42.477)" opacity="0.3">
          <g id="Group_13463" data-name="Group 13463">
            <g id="Group_13462" data-name="Group 13462" clip-path="url(#clip-path-32)">
              <path id="Path_154632" data-name="Path 154632" d="M239.357,46.976a2.591,2.591,0,0,1-3.21,1.68,2.492,2.492,0,0,1-1.732-3.116,2.592,2.592,0,0,1,3.211-1.68,2.493,2.493,0,0,1,1.731,3.116" transform="translate(-234.307 -43.754)" fill="#407bff"/>
            </g>
          </g>
        </g>
        <g id="Group_13467" data-name="Group 13467" transform="translate(239.615 41.298)" opacity="0.6">
          <g id="Group_13466" data-name="Group 13466">
            <g id="Group_13465" data-name="Group 13465" clip-path="url(#clip-path-33)">
              <path id="Path_154633" data-name="Path 154633" d="M241.271,43.6a.85.85,0,0,1-1.052.55.817.817,0,0,1-.568-1.021.85.85,0,0,1,1.053-.55.817.817,0,0,1,.567,1.021" transform="translate(-239.615 -42.54)" fill="#407bff"/>
            </g>
          </g>
        </g>
        <g id="Group_13470" data-name="Group 13470" transform="translate(241.847 40.455)" opacity="0.6">
          <g id="Group_13469" data-name="Group 13469">
            <g id="Group_13468" data-name="Group 13468" clip-path="url(#clip-path-33)">
              <path id="Path_154634" data-name="Path 154634" d="M243.5,42.727a.851.851,0,0,1-1.052.551.819.819,0,0,1-.568-1.022.85.85,0,0,1,1.053-.55.817.817,0,0,1,.567,1.021" transform="translate(-241.847 -41.671)" fill="#407bff"/>
            </g>
          </g>
        </g>
        <g id="Group_13473" data-name="Group 13473" transform="translate(236.842 47.306)" opacity="0.5">
          <g id="Group_13472" data-name="Group 13472">
            <g id="Group_13471" data-name="Group 13471" clip-path="url(#clip-path-35)">
              <path id="Path_154635" data-name="Path 154635" d="M246.648,50.494,237.4,54.042l-.56-1.766,9.247-3.548Z" transform="translate(-236.842 -48.728)" fill="#3e9ab0"/>
            </g>
          </g>
        </g>
      </g>
    </g>
    <g id="Group_13489" data-name="Group 13489">
      <g id="Group_13488" data-name="Group 13488" clip-path="url(#clip-path)">
        <g id="Group_13478" data-name="Group 13478" transform="translate(145.414 171.484)" opacity="0.2">
          <g id="Group_13477" data-name="Group 13477">
            <g id="Group_13476" data-name="Group 13476" clip-path="url(#clip-path-37)">
              <path id="Path_154636" data-name="Path 154636" d="M195.615,189.154A88.718,88.718,0,0,1,193.935,206q-1.77,7.485-5.5,10.951a12.5,12.5,0,0,1-8.81,3.466q-7.71,0-11.77-8.165a22.7,22.7,0,0,1-1.21-3.019,142.234,142.234,0,0,0-15.92,15.562l-5.31,6.077a38.579,38.579,0,0,0,9.77,6.98q9.345,4.689,24.52,4.7c1.78,0,3.5-.049,5.17-.146a137.8,137.8,0,0,0,15.1-28.173l14.85-37.59Z" transform="translate(-145.414 -176.64)"/>
            </g>
          </g>
        </g>
        <path id="Path_154637" data-name="Path 154637" d="M61.746,241.443l17.5,16.991,49.01-44.82c-16.865-6.224-49.742,11.549-66.512,27.829" transform="translate(0 -6.198)" fill="#9cd5e0"/>
        <path id="Path_154638" data-name="Path 154638" d="M122.779,301.411l-17.5-16.991,46.168-47.579c6.411,16.373-11.9,48.29-28.666,64.571" transform="translate(0 -6.913)" fill="#9cd5e0"/>
        <path id="Path_154639" data-name="Path 154639" d="M189.756,191.985l19.091-35.735-36.808,18.535a144.2,144.2,0,0,0-32.445,22.336L76.847,254.467l30.83,29.93,59.071-60.915a140.1,140.1,0,0,0,23.008-31.5" transform="translate(0 -4.561)" fill="#1ed998"/>
        <g id="Group_13481" data-name="Group 13481" transform="translate(76.847 151.69)" opacity="0.6">
          <g id="Group_13480" data-name="Group 13480">
            <g id="Group_13479" data-name="Group 13479" clip-path="url(#clip-path-38)">
              <path id="Path_154640" data-name="Path 154640" d="M189.756,191.985l19.091-35.735-36.808,18.535a144.2,144.2,0,0,0-32.445,22.336L76.847,254.467l30.83,29.93,59.071-60.915a140.1,140.1,0,0,0,23.008-31.5" transform="translate(-76.847 -156.251)" fill="#fff"/>
            </g>
          </g>
        </g>
        <path id="Path_154641" data-name="Path 154641" d="M159.676,223.021a13.176,13.176,0,0,1-18.242,0,12.265,12.265,0,0,1,0-17.71,13.176,13.176,0,0,1,18.242,0,12.266,12.266,0,0,1,0,17.71" transform="translate(0 -5.886)" fill="#fff"/>
        <path id="Path_154642" data-name="Path 154642" d="M156.413,219.988a8.462,8.462,0,0,1-11.717,0,7.879,7.879,0,0,1,0-11.375,8.463,8.463,0,0,1,11.717,0,7.878,7.878,0,0,1,0,11.375" transform="translate(0 -6.021)" fill="#18a675"/>
        <g id="Group_13484" data-name="Group 13484" transform="translate(87.922 217.201)" opacity="0.3">
          <g id="Group_13483" data-name="Group 13483">
            <g id="Group_13482" data-name="Group 13482" clip-path="url(#clip-path-39)">
              <path id="Path_154643" data-name="Path 154643" d="M118.1,275.616l-30.181-29.3,24.711-22.585,28.733,27.9Z" transform="translate(-87.922 -223.732)" fill="#18a675"/>
            </g>
          </g>
        </g>
        <path id="Path_154644" data-name="Path 154644" d="M68.577,269.977c-22.605,1.785-30.094,15.83-32.647,34.5-1.3,9.523-1.88,19.157-10.116,24.731a2.676,2.676,0,0,0,1.634,4.912c30.339-.92,44.49-15.343,46.267-21.382a40.4,40.4,0,0,1-2.492,9.2,2.733,2.733,0,0,0,4.029,3.293c8.518-5.18,19.2-14.713,19.909-30.171-6.3-8.593-26.584-25.083-26.584-25.083" transform="translate(0 -7.881)" fill="#1ed998"/>
        <g id="Group_13487" data-name="Group 13487" transform="translate(24.592 262.096)" opacity="0.2">
          <g id="Group_13486" data-name="Group 13486">
            <g id="Group_13485" data-name="Group 13485" clip-path="url(#clip-path-40)">
              <path id="Path_154645" data-name="Path 154645" d="M68.577,269.977c-22.605,1.785-30.094,15.83-32.647,34.5-1.3,9.523-1.88,19.157-10.116,24.731a2.676,2.676,0,0,0,1.634,4.912c30.339-.92,44.49-15.343,46.267-21.382a40.4,40.4,0,0,1-2.492,9.2,2.733,2.733,0,0,0,4.029,3.293c8.518-5.18,19.2-14.713,19.909-30.171-6.3-8.593-26.584-25.083-26.584-25.083" transform="translate(-24.592 -269.977)" fill="#fff"/>
            </g>
          </g>
        </g>
        <path id="Path_154646" data-name="Path 154646" d="M98.633,301.482l-36.2-35.139,19.283-4.049,21.085,20.469Z" transform="translate(0 -7.656)" fill="#1ed998"/>
      </g>
    </g>
  </g>
</svg>
